<?xml version="1.0" encoding="UTF-8" standalone="no"?>
<svg
   xmlns:dc="http://purl.org/dc/elements/1.1/"
   xmlns:cc="http://creativecommons.org/ns#"
   xmlns:rdf="http://www.w3.org/1999/02/22-rdf-syntax-ns#"
   xmlns:svg="http://www.w3.org/2000/svg"
   xmlns="http://www.w3.org/2000/svg"
   xmlns:sodipodi="http://sodipodi.sourceforge.net/DTD/sodipodi-0.dtd"
   xmlns:inkscape="http://www.inkscape.org/namespaces/inkscape"
   width="44"
   height="44"
   viewBox="0 0 11.641666 11.641667"
   version="1.1"
   id="svg8"
   inkscape:version="1.0.1 (3bc2e813f5, 2020-09-07)"
   sodipodi:docname="3D.svg"
   inkscape:export-filename="D:\PROJECTS\Laravel\theatrebookingsystem\public\images\icons\3D.png"
   inkscape:export-xdpi="96"
   inkscape:export-ydpi="96">
  <defs
     id="defs2">
    <rect
       x="0.77957588"
       y="3.7561383"
       width="12.898438"
       height="10.15811"
       id="rect911" />
    <rect
       x="2.4722433"
       y="9.8889723"
       width="30.535543"
       height="17.706606"
       id="rect837" />
  </defs>
  <sodipodi:namedview
     id="base"
     pagecolor="#ffffff"
     bordercolor="#666666"
     borderopacity="1.0"
     inkscape:pageopacity="0.0"
     inkscape:pageshadow="2"
     inkscape:zoom="7.9195959"
     inkscape:cx="27.570763"
     inkscape:cy="27.046756"
     inkscape:document-units="px"
     inkscape:current-layer="layer1"
     inkscape:document-rotation="0"
     showgrid="false"
     units="px"
     inkscape:window-width="1280"
     inkscape:window-height="971"
     inkscape:window-x="-8"
     inkscape:window-y="-8"
     inkscape:window-maximized="1" />
  <metadata
     id="metadata5">
    <rdf:RDF>
      <cc:Work
         rdf:about="">
        <dc:format>image/svg+xml</dc:format>
        <dc:type
           rdf:resource="http://purl.org/dc/dcmitype/StillImage" />
        <dc:title></dc:title>
      </cc:Work>
    </rdf:RDF>
  </metadata>
  <g
     inkscape:label="Layer 1"
     inkscape:groupmode="layer"
     id="layer1">
    <path
       id="path915"
       style="fill:#00485c;fill-opacity:1;stroke:none;stroke-width:9.99999;stroke-linejoin:round;stroke-miterlimit:1"
       d="M 22 0 A 22 22 0 0 0 0 22 A 22 22 0 0 0 22 44 A 22 22 0 0 0 44 22 A 22 22 0 0 0 22 0 z M 13.998047 15.707031 C 15.609375 15.707031 16.816406 16.035156 17.619141 16.691406 C 18.421875 17.353516 18.822266 18.167969 18.822266 19.134766 C 18.822266 19.714844 18.652344 20.230469 18.3125 20.681641 C 17.972656 21.138672 17.513672 21.455078 16.933594 21.630859 C 17.666016 21.789063 18.236328 22.126953 18.646484 22.642578 C 19.056641 23.158203 19.261719 23.78125 19.261719 24.513672 C 19.261719 25.685547 18.775391 26.609375 17.802734 27.283203 C 16.830078 27.957031 15.550781 28.292969 13.962891 28.292969 C 12.363281 28.292969 11.109375 27.943359 10.201172 27.246094 C 9.3046875 26.554688 8.8320313 25.482422 8.7851562 24.029297 L 11.949219 23.792969 C 12.001953 25.09375 12.609375 25.744141 13.769531 25.744141 C 14.273438 25.744141 14.648438 25.605469 14.894531 25.330078 C 15.134766 25.054688 15.253906 24.720703 15.253906 24.328125 C 15.253906 23.332031 14.589844 22.810547 13.259766 22.763672 L 13.259766 20.777344 C 13.669922 20.777344 14.05664 20.658203 14.419922 20.417969 C 14.777344 20.183593 14.955078 19.833983 14.955078 19.371094 C 14.955078 18.996094 14.837892 18.695312 14.603516 18.466797 C 14.363281 18.24414 14.046875 18.132813 13.654297 18.132812 C 12.816406 18.132812 12.365234 18.595703 12.300781 19.521484 L 8.9960938 19.345703 C 9.0664063 18.126953 9.5410156 17.216797 10.419922 16.613281 C 11.292969 16.009766 12.486328 15.707031 13.998047 15.707031 z M 21.283203 15.953125 L 27.136719 15.953125 C 28.472656 15.953125 29.5625 16.035157 30.40625 16.199219 C 31.255859 16.36328 32.056641 16.699218 32.806641 17.208984 C 33.550782 17.724609 34.136719 18.421875 34.564453 19.300781 C 34.775401 19.722656 34.935558 20.173828 35.046875 20.654297 C 35.158195 21.134766 35.214844 21.638672 35.214844 22.166016 C 35.214844 23.226563 34.988282 24.19336 34.537109 25.066406 C 34.091795 25.933594 33.527343 26.599609 32.841797 27.0625 C 32.173828 27.525391 31.441406 27.826172 30.644531 27.966797 C 29.853516 28.107423 28.628906 28.179687 26.970703 28.179688 L 26.970703 28.177734 L 21.283203 28.177734 L 21.283203 25.251953 L 22.242188 25.251953 L 22.242188 18.878906 L 21.283203 18.878906 L 21.283203 15.953125 z M 26.970703 18.878906 L 26.970703 25.251953 L 27.417969 25.251953 C 28.53125 25.251953 29.255859 24.955078 29.589844 24.363281 C 29.917969 23.771484 30.082031 23.029297 30.082031 22.132812 C 30.082031 21.59375 30.01172 21.058594 29.871094 20.53125 C 29.72461 20.003906 29.466797 19.597656 29.097656 19.310547 C 28.734375 19.023437 28.083984 18.878906 27.146484 18.878906 L 26.970703 18.878906 z "
       transform="scale(0.26458333)" />
    <g
       aria-label="IMAX"
       transform="matrix(1,0,0,0.84876814,-1.1138198,3.545904)"
       id="text835"
       style="font-size:10.5833px;line-height:1.25;font-family:dubai;-inkscape-font-specification:dubai;white-space:pre;shape-inside:url(#rect837);fill:#ffffff;stroke-width:1.08544" />
    <g
       aria-label="3D"
       transform="translate(-1.3960552,-0.53083565)"
       id="text909"
       style="font-size:4.7625px;line-height:1.25;font-family:dubai;-inkscape-font-specification:dubai;white-space:pre;shape-inside:url(#rect911);fill:#000000" />
  </g>
</svg>
