<?xml version="1.0" encoding="UTF-8" standalone="no"?>
<svg
   xmlns:dc="http://purl.org/dc/elements/1.1/"
   xmlns:cc="http://creativecommons.org/ns#"
   xmlns:rdf="http://www.w3.org/1999/02/22-rdf-syntax-ns#"
   xmlns:svg="http://www.w3.org/2000/svg"
   xmlns="http://www.w3.org/2000/svg"
   xmlns:sodipodi="http://sodipodi.sourceforge.net/DTD/sodipodi-0.dtd"
   xmlns:inkscape="http://www.inkscape.org/namespaces/inkscape"
   width="80"
   height="40"
   viewBox="0 0 21.166666 10.583334"
   version="1.1"
   id="svg8"
   sodipodi:docname="duoSeat.svg"
   inkscape:version="1.0.1 (3bc2e813f5, 2020-09-07)"
   inkscape:export-filename="C:\Users\Garuda\Desktop\singleSeat\singleSeat.png"
   inkscape:export-xdpi="96"
   inkscape:export-ydpi="96">
  <defs
     id="defs2" />
  <sodipodi:namedview
     id="base"
     pagecolor="#ffffff"
     bordercolor="#666666"
     borderopacity="1.0"
     inkscape:pageopacity="0.0"
     inkscape:pageshadow="2"
     inkscape:zoom="11.2"
     inkscape:cx="50.712349"
     inkscape:cy="29.502212"
     inkscape:document-units="px"
     inkscape:current-layer="layer1"
     inkscape:document-rotation="0"
     showgrid="false"
     units="px"
     inkscape:window-width="1280"
     inkscape:window-height="971"
     inkscape:window-x="792"
     inkscape:window-y="-8"
     inkscape:window-maximized="1" />
  <metadata
     id="metadata5">
    <rdf:RDF>
      <cc:Work
         rdf:about="">
        <dc:format>image/svg+xml</dc:format>
        <dc:type
           rdf:resource="http://purl.org/dc/dcmitype/StillImage" />
        <dc:title></dc:title>
      </cc:Work>
    </rdf:RDF>
  </metadata>
  <g
     inkscape:label="Layer 1"
     inkscape:groupmode="layer"
     id="layer1">
    <path
       id="rect851-1"
       style="fill:#687285;fill-opacity:1;stroke:none;stroke-width:3;stroke-linecap:round;stroke-linejoin:round;paint-order:fill markers stroke"
       d="M 2.5996094,12 C 1.7132108,12 1,12.713209 1,13.599609 V 34.400391 C 1,35.28679 1.7132108,36 2.5996094,36 H 4 v 1 c 0,1.662 1.3410444,2.899457 3,3 h 66 c 1.658956,-0.100543 3,-1.338002 3,-3 v -1 h 1.400391 C 78.286788,36 79,35.286788 79,34.400391 V 13.599609 C 79,12.713209 78.286788,12 77.400391,12 H 74.599609 C 73.713212,12 73,12.713209 73,13.599609 V 28 c 0,3.995085 -3.003286,4 -4,4 H 11 C 10.003285,32 7,31.9952 7,28 V 13.599609 C 7,12.713209 6.2867907,12 5.4003906,12 Z"
       transform="scale(0.26458334)"
       sodipodi:nodetypes="sssscsccscsssssssccssss" />
    <path
       id="rect833"
       style="fill:#809099;fill-opacity:1;stroke:none;stroke-width:3;stroke-linecap:round;stroke-linejoin:round;paint-order:fill markers stroke"
       d="M 12,8 C 10.338,8 9,9.338 9,11 v 16 c 0,1.662 1.338,3 3,3 h 56 c 1.661998,0 3,-1.337999 3,-3 V 11 C 71,9.338 69.661998,8 68,8 Z"
       transform="scale(0.26458334)"
       sodipodi:nodetypes="cssccsscc" />
  </g>
</svg>
