<?xml version="1.0" encoding="UTF-8" standalone="no"?>
<svg
   xmlns:dc="http://purl.org/dc/elements/1.1/"
   xmlns:cc="http://creativecommons.org/ns#"
   xmlns:rdf="http://www.w3.org/1999/02/22-rdf-syntax-ns#"
   xmlns:svg="http://www.w3.org/2000/svg"
   xmlns="http://www.w3.org/2000/svg"
   xmlns:sodipodi="http://sodipodi.sourceforge.net/DTD/sodipodi-0.dtd"
   xmlns:inkscape="http://www.inkscape.org/namespaces/inkscape"
   width="44"
   height="22"
   viewBox="0 0 21.166666 10.583334"
   version="1.1"
   id="svg8"
   sodipodi:docname="duoSeat.svg"
   inkscape:version="1.0.1 (3bc2e813f5, 2020-09-07)"
   inkscape:export-filename="C:\Users\Garuda\Desktop\singleSeat\singleSeat.png"
   inkscape:export-xdpi="96"
   inkscape:export-ydpi="96">
  <defs
     id="defs2" />
  <sodipodi:namedview
     id="base"
     pagecolor="#ffffff"
     bordercolor="#666666"
     borderopacity="1.0"
     inkscape:pageopacity="0.0"
     inkscape:pageshadow="2"
     inkscape:zoom="15.839192"
     inkscape:cx="27.734335"
     inkscape:cy="12.518593"
     inkscape:document-units="px"
     inkscape:current-layer="layer1"
     inkscape:document-rotation="0"
     showgrid="false"
     units="px"
     inkscape:window-width="1280"
     inkscape:window-height="971"
     inkscape:window-x="-8"
     inkscape:window-y="-8"
     inkscape:window-maximized="1" />
  <metadata
     id="metadata5">
    <rdf:RDF>
      <cc:Work
         rdf:about="">
        <dc:format>image/svg+xml</dc:format>
        <dc:type
           rdf:resource="http://purl.org/dc/dcmitype/StillImage" />
        <dc:title />
      </cc:Work>
    </rdf:RDF>
  </metadata>
  <g
     inkscape:label="Layer 1"
     inkscape:groupmode="layer"
     id="layer1">
    <path
       id="rect851-1"
       style="fill:#a8baac;fill-opacity:1;stroke:none;stroke-width:3;stroke-linecap:round;stroke-linejoin:round;paint-order:fill markers stroke"
       d="M 3.4179865,12 C 2.5315879,12 1.8183771,12.713209 1.8183771,13.599609 V 34.400391 C 1.8183771,35.28679 2.5315879,36 3.4179865,36 H 4 v 1 c 0,1.662 1.3410444,2.899457 3,3 h 66 c 1.658956,-0.100543 3,-1.338002 3,-3 v -1 h 0.582013 c 0.886397,0 1.599609,-0.713212 1.599609,-1.599609 V 13.599609 C 78.181622,12.713209 77.46841,12 76.582013,12 h -2.254936 c -0.886397,0 -1.599609,0.713209 -1.599609,1.599609 V 28 c 0,3.995085 -3.003286,4 -4,4 H 11.272532 C 10.275817,32 7.2725319,31.9952 7.2725319,28 V 13.599609 C 7.2725319,12.713209 6.5593226,12 5.6729225,12 Z"
       transform="scale(0.26458334)"
       sodipodi:nodetypes="sssscsccscssssssscsssss" />
    <path
       id="rect833"
       style="fill:#a8baac;fill-opacity:1;stroke:none;stroke-width:3;stroke-linecap:round;stroke-linejoin:round;paint-order:fill markers stroke"
       d="m 12.090909,7.2727272 c -1.662,0 -3,1.338 -3,2.9999998 V 27 c 0,1.662 1.338,3 3,3 H 67.90909 c 1.661998,0 3,-1.337999 3,-3 V 10.272727 c 0,-1.6619998 -1.338002,-2.9999998 -3,-2.9999998 z"
       transform="scale(0.26458334)"
       sodipodi:nodetypes="cssccsscc" />
  </g>
</svg>
