<?xml version="1.0" encoding="UTF-8" standalone="no"?>
<svg
   xmlns:dc="http://purl.org/dc/elements/1.1/"
   xmlns:cc="http://creativecommons.org/ns#"
   xmlns:rdf="http://www.w3.org/1999/02/22-rdf-syntax-ns#"
   xmlns:svg="http://www.w3.org/2000/svg"
   xmlns="http://www.w3.org/2000/svg"
   xmlns:sodipodi="http://sodipodi.sourceforge.net/DTD/sodipodi-0.dtd"
   xmlns:inkscape="http://www.inkscape.org/namespaces/inkscape"
   width="510"
   height="100"
   viewBox="0 0 134.93751 26.458334"
   version="1.1"
   id="svg8"
   sodipodi:docname="filmXperience_design.svg"
   inkscape:version="1.0.1 (3bc2e813f5, 2020-09-07)">
  <defs
     id="defs2">
    <rect
       x="-8.0448132"
       y="36.2952"
       width="137.32307"
       height="33.301785"
       id="rect44" />
    <rect
       x="-8.0448132"
       y="36.2952"
       width="137.32307"
       height="33.301785"
       id="rect44-9" />
    <rect
       x="-8.0448132"
       y="36.2952"
       width="137.32307"
       height="33.301785"
       id="rect61" />
  </defs>
  <sodipodi:namedview
     id="base"
     pagecolor="#ffffff"
     bordercolor="#666666"
     borderopacity="1.0"
     inkscape:pageopacity="0.0"
     inkscape:pageshadow="2"
     inkscape:zoom="2.8284271"
     inkscape:cx="224.61987"
     inkscape:cy="48.867807"
     inkscape:document-units="px"
     inkscape:current-layer="layer2"
     inkscape:document-rotation="0"
     showgrid="false"
     units="px"
     inkscape:window-width="1264"
     inkscape:window-height="967"
     inkscape:window-x="0"
     inkscape:window-y="0"
     inkscape:window-maximized="0" />
  <metadata
     id="metadata5">
    <rdf:RDF>
      <cc:Work
         rdf:about="">
        <dc:format>image/svg+xml</dc:format>
        <dc:type
           rdf:resource="http://purl.org/dc/dcmitype/StillImage" />
        <dc:title></dc:title>
      </cc:Work>
    </rdf:RDF>
  </metadata>
  <g
     inkscape:label="Layer 1"
     inkscape:groupmode="layer"
     id="layer1" />
  <g
     inkscape:groupmode="layer"
     id="layer2"
     inkscape:label="Layer 2">
    <text
       xml:space="preserve"
       id="text42"
       style="font-size:16.9333px;line-height:1.25;font-family:dubai;-inkscape-font-specification:dubai;white-space:pre;shape-inside:url(#rect44);"
       transform="translate(7.900991,-33.873125)"><tspan
         x="-8.0449219"
         y="51.195889"><tspan
           style="font-style:normal;font-variant:normal;font-weight:bold;font-stretch:normal;font-family:dubai;-inkscape-font-specification:'dubai Bold'">FILM</tspan></tspan></text>
    <text
       xml:space="preserve"
       id="text42-6"
       style="font-size:16.9333px;line-height:1.25;font-family:dubai;-inkscape-font-specification:dubai;white-space:pre;shape-inside:url(#rect44-9);"
       transform="translate(68.225998,-33.636059)"><tspan
         x="-8.0449219"
         y="51.195889"><tspan
           style="font-style:normal;font-variant:normal;font-weight:bold;font-stretch:normal;font-family:dubai;-inkscape-font-specification:'dubai Bold'">PERIENCE</tspan></tspan></text>
    <path
       id="rect81"
       style="fill:#1a1a1a;stroke-width:2.64582;stroke-linejoin:round;stroke-miterlimit:1"
       d="M 39.6875,18.361262 42.306742,20.980504 58.022191,5.2650577 55.402949,2.6458172 Z m 2.432153,-0.561265 0.748355,-0.748356 0.748354,0.748355 -0.748354,0.748354 z m 1.683798,-1.683799 0.748355,-0.748355 0.748354,0.748355 -0.748354,0.748354 z m 1.683798,-1.683798 0.748355,-0.748355 0.748354,0.748355 -0.748354,0.748354 z m 1.683798,-1.683798 0.748355,-0.748355 0.748354,0.748355 -0.748354,0.748354 z m 1.683798,-1.683798 0.748355,-0.748355 0.748354,0.748355 -0.748354,0.748354 z m 1.683798,-1.6837974 0.748356,-0.7483557 0.748354,0.7483547 -0.748355,0.7483544 z m 1.683798,-1.6837971 0.748355,-0.7483547 0.748355,0.7483537 -0.748355,0.7483544 z m 1.683798,-1.6837971 0.748355,-0.7483547 0.748355,0.7483537 -0.748355,0.7483547 z" />
    <path
       id="rect81-4-9-0"
       style="fill:#1a1a1a;stroke-width:2.64583;stroke-linejoin:round;stroke-miterlimit:1"
       d="m 42.382428,2.6458182 -6.45201,1.53e-5 8.989838,8.9859945 3.224093,-3.2240918 z m 9.877949,9.8779448 -3.224094,3.224093 9.466091,9.466143 h 6.447546 z"
       sodipodi:nodetypes="cccccccccc" />
  </g>
</svg>
