<?xml version="1.0" encoding="UTF-8" standalone="no"?>
<svg
   xmlns:dc="http://purl.org/dc/elements/1.1/"
   xmlns:cc="http://creativecommons.org/ns#"
   xmlns:rdf="http://www.w3.org/1999/02/22-rdf-syntax-ns#"
   xmlns:svg="http://www.w3.org/2000/svg"
   xmlns="http://www.w3.org/2000/svg"
   xmlns:sodipodi="http://sodipodi.sourceforge.net/DTD/sodipodi-0.dtd"
   xmlns:inkscape="http://www.inkscape.org/namespaces/inkscape"
   width="44"
   height="44"
   viewBox="0 0 11.641666 11.641667"
   version="1.1"
   id="svg8"
   inkscape:version="1.0.1 (3bc2e813f5, 2020-09-07)"
   sodipodi:docname="laser.svg"
   inkscape:export-filename="D:\PROJECTS\Laravel\theatrebookingsystem\public\images\icons\LASER.png"
   inkscape:export-xdpi="96"
   inkscape:export-ydpi="96">
  <defs
     id="defs2">
    <rect
       x="0.77957588"
       y="3.7561383"
       width="12.898438"
       height="10.15811"
       id="rect911" />
    <rect
       x="2.4722433"
       y="9.8889723"
       width="30.535543"
       height="17.706606"
       id="rect837" />
  </defs>
  <sodipodi:namedview
     id="base"
     pagecolor="#ffffff"
     bordercolor="#666666"
     borderopacity="1.0"
     inkscape:pageopacity="0.0"
     inkscape:pageshadow="2"
     inkscape:zoom="7.9195959"
     inkscape:cx="27.570763"
     inkscape:cy="27.046756"
     inkscape:document-units="px"
     inkscape:current-layer="layer1"
     inkscape:document-rotation="0"
     showgrid="false"
     units="px"
     inkscape:window-width="1280"
     inkscape:window-height="971"
     inkscape:window-x="-8"
     inkscape:window-y="-8"
     inkscape:window-maximized="1" />
  <metadata
     id="metadata5">
    <rdf:RDF>
      <cc:Work
         rdf:about="">
        <dc:format>image/svg+xml</dc:format>
        <dc:type
           rdf:resource="http://purl.org/dc/dcmitype/StillImage" />
        <dc:title></dc:title>
      </cc:Work>
    </rdf:RDF>
  </metadata>
  <g
     inkscape:label="Layer 1"
     inkscape:groupmode="layer"
     id="layer1">
    <path
       id="path915"
       style="fill:#00485c;fill-opacity:1;stroke:none;stroke-width:9.99999;stroke-linejoin:round;stroke-miterlimit:1"
       d="M 22 0 A 22 22 0 0 0 0 22 A 22 22 0 0 0 22 44 A 22 22 0 0 0 44 22 A 22 22 0 0 0 22 0 z M 21.220703 17.480469 C 21.740234 17.480469 22.255859 17.533203 22.767578 17.638672 C 23.283203 17.744141 23.744141 17.886719 24.150391 18.066406 L 24.150391 20.058594 L 23.957031 20.058594 C 23.632813 19.78125 23.236328 19.544922 22.767578 19.353516 C 22.302734 19.16211 21.824219 19.068359 21.332031 19.068359 C 21.140626 19.068359 20.968751 19.080078 20.816406 19.107422 C 20.664064 19.134765 20.503907 19.189453 20.335938 19.267578 C 20.199217 19.330079 20.080079 19.423829 19.978516 19.548828 C 19.88086 19.669922 19.832031 19.80664 19.832031 19.958984 C 19.832031 20.181641 19.910156 20.359374 20.066406 20.492188 C 20.226562 20.621095 20.533203 20.738281 20.986328 20.84375 C 21.279297 20.910156 21.560547 20.974609 21.830078 21.037109 C 22.103516 21.09961 22.394531 21.185547 22.703125 21.294922 C 23.308594 21.513671 23.757812 21.808591 24.050781 22.179688 C 24.347656 22.546875 24.496094 23.033203 24.496094 23.638672 C 24.496094 24.505859 24.154297 25.203125 23.470703 25.730469 C 22.791016 26.257813 21.871094 26.521484 20.710938 26.521484 C 20.042967 26.521484 19.455078 26.455079 18.947266 26.326172 C 18.443359 26.197265 17.974609 26.037108 17.541016 25.845703 L 17.541016 23.771484 L 17.740234 23.771484 C 18.177734 24.142578 18.660156 24.429687 19.1875 24.628906 C 19.714844 24.828125 20.226563 24.927734 20.722656 24.927734 C 20.847655 24.927734 21.011718 24.914062 21.214844 24.886719 C 21.421876 24.859375 21.587892 24.814455 21.712891 24.755859 C 21.865233 24.689453 21.994139 24.597657 22.099609 24.480469 C 22.205078 24.359375 22.257813 24.201172 22.257812 24.005859 C 22.257812 23.78711 22.171875 23.609376 22 23.472656 C 21.828125 23.335939 21.623047 23.236328 21.384766 23.173828 C 21.087891 23.095703 20.769531 23.023438 20.429688 22.953125 C 20.093748 22.882812 19.779297 22.794922 19.486328 22.693359 C 18.810547 22.455078 18.326172 22.136719 18.033203 21.734375 C 17.740234 21.332031 17.59375 20.828125 17.59375 20.222656 C 17.59375 19.40625 17.939453 18.746094 18.630859 18.242188 C 19.322266 17.734373 20.185547 17.480469 21.220703 17.480469 z M 2.9335938 17.638672 L 5.125 17.638672 L 5.125 24.699219 L 8.7578125 24.699219 L 8.7578125 26.363281 L 2.9335938 26.363281 L 2.9335938 17.638672 z M 11.810547 17.638672 L 14.201172 17.638672 L 17.148438 26.363281 L 14.892578 26.363281 L 14.347656 24.580078 L 11.605469 24.580078 L 11.060547 26.363281 L 8.8632812 26.363281 L 11.810547 17.638672 z M 25.615234 17.638672 L 31.515625 17.638672 L 31.515625 19.302734 L 27.794922 19.302734 L 27.794922 20.830078 L 31.222656 20.830078 L 31.222656 22.494141 L 27.794922 22.494141 L 27.794922 24.699219 L 31.515625 24.699219 L 31.515625 26.363281 L 25.615234 26.363281 L 25.615234 17.638672 z M 32.998047 17.638672 L 36.507812 17.638672 C 36.992187 17.638672 37.414062 17.669921 37.773438 17.732422 C 38.132813 17.791015 38.464843 17.916014 38.769531 18.107422 C 39.08203 18.306641 39.330078 18.560547 39.513672 18.869141 C 39.697256 19.173828 39.789062 19.5625 39.789062 20.035156 C 39.789062 20.703125 39.638673 21.246094 39.337891 21.664062 C 39.037111 22.078125 38.634766 22.408203 38.130859 22.654297 L 41.066406 26.363281 L 38.394531 26.363281 L 35.962891 23.162109 L 35.177734 23.162109 L 35.177734 26.363281 L 32.998047 26.363281 L 32.998047 17.638672 z M 35.177734 19.244141 L 35.177734 21.59375 L 35.804688 21.59375 C 36.109375 21.59375 36.36719 21.57422 36.578125 21.539062 C 36.792979 21.5 36.974617 21.419922 37.123047 21.298828 C 37.26367 21.189454 37.3672 21.058594 37.433594 20.90625 C 37.503715 20.754347 37.53886 20.555661 37.539062 20.310547 C 37.538791 20.092688 37.49583 19.903803 37.410156 19.748047 C 37.328115 19.587891 37.189444 19.462892 36.994141 19.376953 C 36.857423 19.31836 36.705079 19.281252 36.537109 19.265625 C 36.369147 19.250003 36.160162 19.244141 35.910156 19.244141 L 35.177734 19.244141 z M 12.976562 20.121094 L 12.085938 22.998047 L 13.867188 22.998047 L 12.976562 20.121094 z "
       transform="scale(0.26458333)" />
    <g
       aria-label="IMAX"
       transform="matrix(1,0,0,0.84876814,-1.1138198,3.545904)"
       id="text835"
       style="font-size:10.5833px;line-height:1.25;font-family:dubai;-inkscape-font-specification:dubai;white-space:pre;shape-inside:url(#rect837);fill:#ffffff;stroke-width:1.08544" />
    <g
       aria-label="LASER"
       transform="translate(-1.5611614,0.32251826)"
       id="text909"
       style="font-style:normal;font-variant:normal;font-weight:bold;font-stretch:normal;font-size:3.175px;line-height:1.25;font-family:Tahoma;-inkscape-font-specification:'Tahoma Bold';white-space:pre;shape-inside:url(#rect911);fill:#000000" />
  </g>
</svg>
