<?xml version="1.0" encoding="UTF-8" standalone="no"?>
<svg
   xmlns:dc="http://purl.org/dc/elements/1.1/"
   xmlns:cc="http://creativecommons.org/ns#"
   xmlns:rdf="http://www.w3.org/1999/02/22-rdf-syntax-ns#"
   xmlns:svg="http://www.w3.org/2000/svg"
   xmlns="http://www.w3.org/2000/svg"
   xmlns:sodipodi="http://sodipodi.sourceforge.net/DTD/sodipodi-0.dtd"
   xmlns:inkscape="http://www.inkscape.org/namespaces/inkscape"
   width="22"
   height="22"
   viewBox="0 0 10.583333 10.583334"
   version="1.1"
   id="svg8"
   sodipodi:docname="singleSeat.svg"
   inkscape:version="1.0.1 (3bc2e813f5, 2020-09-07)"
   inkscape:export-filename="C:\Users\Garuda\Desktop\singleSeat\singleSeat.png"
   inkscape:export-xdpi="96"
   inkscape:export-ydpi="96">
  <defs
     id="defs2" />
  <sodipodi:namedview
     id="base"
     pagecolor="#ffffff"
     bordercolor="#666666"
     borderopacity="1.0"
     inkscape:pageopacity="0.0"
     inkscape:pageshadow="2"
     inkscape:zoom="31.678384"
     inkscape:cx="10.991882"
     inkscape:cy="12.542973"
     inkscape:document-units="px"
     inkscape:current-layer="layer1"
     inkscape:document-rotation="0"
     showgrid="false"
     units="px"
     inkscape:window-width="1280"
     inkscape:window-height="971"
     inkscape:window-x="-8"
     inkscape:window-y="-8"
     inkscape:window-maximized="1" />
  <metadata
     id="metadata5">
    <rdf:RDF>
      <cc:Work
         rdf:about="">
        <dc:format>image/svg+xml</dc:format>
        <dc:type
           rdf:resource="http://purl.org/dc/dcmitype/StillImage" />
        <dc:title />
      </cc:Work>
    </rdf:RDF>
  </metadata>
  <g
     inkscape:label="Layer 1"
     inkscape:groupmode="layer"
     id="layer1">
    <path
       id="rect851-1"
       style="fill:#a8baac;fill-opacity:1;stroke:none;stroke-width:0.79375;stroke-linecap:round;stroke-linejoin:round;paint-order:fill markers stroke"
       d="m 0.90439395,3.1750001 c -0.2345267,0 -0.42333334,0.1887032 -0.42333334,0.4232299 v 5.5035403 c 0,0.2345267 0.18880664,0.4232299 0.42333334,0.4232299 H 1.0583334 v 0.2645834 c 0,0.4397374 0.3540126,0.7937504 0.79375,0.7937504 h 6.8791668 c 0.4397375,0 0.79375,-0.354013 0.79375,-0.7937504 V 9.5250002 h 0.1539393 c 0.2345266,0 0.4233335,-0.1887032 0.4233335,-0.4232299 V 3.59823 c 0,-0.2345267 -0.1888069,-0.4232299 -0.4233335,-0.4232299 H 9.0823726 c -0.2345267,0 -0.4232299,0.1887032 -0.4232299,0.4232299 v 3.8101035 c 0,1.0594729 -0.7933857,1.0583334 -1.0583333,1.0583334 H 2.9825241 c -0.2637141,0 -1.0583333,-0.00127 -1.0583333,-1.0583334 V 3.59823 c 0,-0.2345267 -0.1887033,-0.4232299 -0.42323,-0.4232299 z"
       sodipodi:nodetypes="sssscsssscssssssccccsss" />
    <path
       id="rect833"
       style="fill:#a8baac;fill-opacity:1;stroke:none;stroke-width:0.793751;stroke-linecap:round;stroke-linejoin:round;paint-order:fill markers stroke"
       d="m 3.1990531,1.9242425 h 4.1852273 c 0.4397375,0 0.79375,0.3540125 0.79375,0.79375 V 7.14375 c 0,0.4397375 -0.3540125,0.79375 -0.79375,0.79375 H 3.1990531 c -0.4397375,0 -0.79375,-0.3540125 -0.79375,-0.79375 V 2.7179925 c 0,-0.4397375 0.3540125,-0.79375 0.79375,-0.79375 z"
       sodipodi:nodetypes="sssssssss" />
  </g>
</svg>
